<?xml version="1.0" encoding="UTF-8" standalone="no"?>
<svg
   xmlns:dc="http://purl.org/dc/elements/1.1/"
   xmlns:cc="http://creativecommons.org/ns#"
   xmlns:rdf="http://www.w3.org/1999/02/22-rdf-syntax-ns#"
   xmlns:svg="http://www.w3.org/2000/svg"
   xmlns="http://www.w3.org/2000/svg"
   xmlns:sodipodi="http://sodipodi.sourceforge.net/DTD/sodipodi-0.dtd"
   xmlns:inkscape="http://www.inkscape.org/namespaces/inkscape"
   width="210mm"
   height="297mm"
   viewBox="0 0 210 297"
   version="1.1"
   id="svg8"
   inkscape:version="1.0.2 (e86c870879, 2021-01-15)"
   sodipodi:docname="vectors.svg">
  <defs
     id="defs2">
    <rect
       x="-27.608549"
       y="86.763576"
       width="88.029003"
       height="55.220213"
       id="rect68" />
    <rect
       x="33.141019"
       y="56.991446"
       width="25.327173"
       height="12.769568"
       id="rect12" />
    <rect
       x="33.141018"
       y="56.991447"
       width="25.327173"
       height="12.769568"
       id="rect12-3" />
    <rect
       x="33.141018"
       y="56.991447"
       width="25.327173"
       height="12.769568"
       id="rect51" />
    <rect
       x="33.141018"
       y="56.991447"
       width="25.327173"
       height="12.769568"
       id="rect12-3-3" />
    <rect
       x="33.141018"
       y="56.991447"
       width="25.327173"
       height="12.769568"
       id="rect26" />
    <rect
       x="33.141018"
       y="56.991447"
       width="25.327173"
       height="12.769568"
       id="rect12-3-3-3" />
    <rect
       x="33.141018"
       y="56.991447"
       width="25.327173"
       height="12.769568"
       id="rect81" />
    <rect
       x="33.141018"
       y="56.991447"
       width="62.071978"
       height="13.549096"
       id="rect12-3-3-6" />
    <rect
       x="33.141018"
       y="56.991447"
       width="25.327173"
       height="12.769568"
       id="rect81-2" />
    <rect
       x="33.141018"
       y="56.991447"
       width="33.401375"
       height="11.915152"
       id="rect12-3-3-1" />
    <rect
       x="33.141018"
       y="56.991447"
       width="25.327173"
       height="12.769568"
       id="rect81-27" />
    <rect
       x="33.141018"
       y="56.991447"
       width="25.327173"
       height="12.769568"
       id="rect12-3-3-9" />
    <rect
       x="33.141018"
       y="56.991447"
       width="25.327173"
       height="12.769568"
       id="rect81-3" />
    <rect
       x="33.141018"
       y="56.991447"
       width="73.225362"
       height="13.915039"
       id="rect12-3-3-6-0" />
    <rect
       x="33.141018"
       y="56.991447"
       width="62.07198"
       height="13.549096"
       id="rect181" />
    <rect
       x="33.141018"
       y="56.991447"
       width="73.225365"
       height="13.915039"
       id="rect12-3-3-6-0-2" />
    <rect
       x="33.141018"
       y="56.991447"
       width="73.225365"
       height="13.915039"
       id="rect218" />
    <rect
       x="33.141018"
       y="56.991447"
       width="73.225365"
       height="13.915039"
       id="rect12-3-3-6-0-1" />
    <rect
       x="33.141018"
       y="56.991447"
       width="73.225365"
       height="13.915039"
       id="rect257" />
    <rect
       x="33.141018"
       y="56.991447"
       width="73.225365"
       height="13.915039"
       id="rect12-3-3-6-0-1-7" />
    <rect
       x="33.141018"
       y="56.991447"
       width="73.225365"
       height="13.915039"
       id="rect294" />
    <rect
       x="33.141018"
       y="56.991447"
       width="73.225365"
       height="13.915039"
       id="rect12-3-3-6-0-1-7-2" />
    <rect
       x="33.141018"
       y="56.991447"
       width="73.225365"
       height="13.915039"
       id="rect331" />
  </defs>
  <sodipodi:namedview
     id="base"
     pagecolor="#ffffff"
     bordercolor="#666666"
     borderopacity="1.0"
     inkscape:pageopacity="0.0"
     inkscape:pageshadow="2"
     inkscape:zoom="1.4"
     inkscape:cx="96.749074"
     inkscape:cy="204.87653"
     inkscape:document-units="mm"
     inkscape:current-layer="layer1"
     inkscape:document-rotation="0"
     showgrid="false"
     inkscape:window-width="1920"
     inkscape:window-height="1024"
     inkscape:window-x="1280"
     inkscape:window-y="0"
     inkscape:window-maximized="1" />
  <metadata
     id="metadata5">
    <rdf:RDF>
      <cc:Work
         rdf:about="">
        <dc:format>image/svg+xml</dc:format>
        <dc:type
           rdf:resource="http://purl.org/dc/dcmitype/StillImage" />
        <dc:title></dc:title>
      </cc:Work>
    </rdf:RDF>
  </metadata>
  <g
     inkscape:label="Camada 1"
     inkscape:groupmode="layer"
     id="layer1">
    <g
       id="g132"
       transform="matrix(0.74429673,0,0,0.75077045,-43.442188,-62.535809)"
       style="fill:#808080"
       inkscape:export-filename="/home/dan/Desktop/icon.png"
       inkscape:export-xdpi="25.400002"
       inkscape:export-ydpi="25.400002">
      <text
         xml:space="preserve"
         id="text10"
         style="font-size:10.5833px;line-height:1.25;font-family:'DK Smiling Cat';-inkscape-font-specification:'DK Smiling Cat';white-space:pre;shape-inside:url(#rect12-3);fill:#808080;"
         transform="matrix(1.2275769,0,0,1.2275769,17.365417,12.385911)"><tspan
           x="33.140625"
           y="65.905722"><tspan
             style="fill:#808080">EDIT</tspan></tspan></text>
      <path
         d="m 67.683695,98.510144 c 0.105833,2.786946 0.388055,4.480276 1.058334,6.279446 1.19944,3.38667 2.39889,5.75028 3.03389,5.99722 0.3175,0.14111 1.12889,-0.38805 2.15194,-1.41111 1.72861,-1.69333 2.46945,-1.94028 3.21028,-1.02306 0.74083,0.88195 2.29306,1.55223 3.66889,1.55223 1.69333,0 4.7625,-2.75167 4.7625,-4.23334 v -0.9525 l -1.27,1.16417 c -1.5875,1.51694 -3.21028,1.62278 -5.15056,0.28222 -0.74083,-0.52916 -1.34055,-1.05833 -1.34055,-1.16416 0,-0.14112 0.56444,-0.77612 1.23472,-1.44639 1.41111,-1.37584 2.50472,-3.45723 2.04611,-3.915839 -0.35278,-0.35278 -12.594166,-4.903607 -13.193888,-4.903607 -0.282222,0 -0.352778,1.09361 -0.211666,3.77472 z"
         id="path24"
         style="fill:#808080;stroke:none;stroke-width:0.0352778" />
    </g>
    <text
       xml:space="preserve"
       id="text10-7"
       style="font-size:10.5833px;line-height:1.25;font-family:'DK Smiling Cat';-inkscape-font-specification:'DK Smiling Cat';white-space:pre;shape-inside:url(#rect12-3-3);fill:#808080;"
       transform="matrix(0.99504443,0,0,1.0036991,-32.911577,-33.277417)"><tspan
         x="33.140625"
         y="65.905722"><tspan>Add</tspan></tspan></text>
    <text
       xml:space="preserve"
       id="text66"
       style="line-height:1.25;font-family:'DK Smiling Cat';font-size:10.58333333px;-inkscape-font-specification:'DK Smiling Cat';white-space:pre;shape-inside:url(#rect68);" />
    <text
       xml:space="preserve"
       id="text10-7-9"
       style="font-size:10.5833px;line-height:1.25;font-family:'DK Smiling Cat';-inkscape-font-specification:'DK Smiling Cat';white-space:pre;shape-inside:url(#rect12-3-3-6);fill:#808080;"
       transform="matrix(0.99504443,0,0,1.0036991,-32.986897,-2.7696475)"><tspan
         x="33.140625"
         y="65.905722"><tspan>Export</tspan></tspan></text>
    <text
       xml:space="preserve"
       id="text10-7-0"
       style="font-size:10.5833px;line-height:1.25;font-family:'DK Smiling Cat';-inkscape-font-specification:'DK Smiling Cat';white-space:pre;shape-inside:url(#rect12-3-3-1);fill:#808080;"
       transform="matrix(0.99504443,0,0,1.0036991,-32.916472,-12.836982)"><tspan
         x="33.140625"
         y="65.905722"><tspan>Delete</tspan></tspan></text>
    <text
       xml:space="preserve"
       id="text10-7-6"
       style="font-size:10.5833px;line-height:1.25;font-family:'DK Smiling Cat';-inkscape-font-specification:'DK Smiling Cat';white-space:pre;shape-inside:url(#rect12-3-3-9);fill:#808080;"
       transform="matrix(0.99504443,0,0,1.0036991,-32.878277,-22.874487)"><tspan
         x="33.140625"
         y="65.905722"><tspan>Close</tspan></tspan></text>
    <text
       xml:space="preserve"
       id="text10-7-9-6"
       style="font-size:10.5833px;line-height:1.25;font-family:'DK Smiling Cat';-inkscape-font-specification:'DK Smiling Cat';white-space:pre;shape-inside:url(#rect12-3-3-6-0);fill:#808080;"
       transform="matrix(0.99504443,0,0,1.0036991,-32.980235,7.3720355)"><tspan
         x="33.140625"
         y="65.905722"><tspan>Export to CSV...</tspan></tspan></text>
    <text
       xml:space="preserve"
       id="text10-7-9-6-6"
       style="font-size:10.5833px;line-height:1.25;font-family:'DK Smiling Cat';-inkscape-font-specification:'DK Smiling Cat';white-space:pre;shape-inside:url(#rect12-3-3-6-0-2);fill:#808080;"
       transform="matrix(0.99504443,0,0,1.0036991,-33.118491,17.52508)"><tspan
         x="33.140625"
         y="65.905722"><tspan>Import</tspan></tspan></text>
    <path
       style="fill:none;stroke:#000000;stroke-width:0.264583px;stroke-linecap:butt;stroke-linejoin:miter;stroke-opacity:1"
       d="m 131.27235,75.038494 h -0.0754"
       id="path246" />
    <text
       xml:space="preserve"
       id="text10-7-9-6-8"
       style="font-size:10.5833px;line-height:1.25;font-family:'DK Smiling Cat';-inkscape-font-specification:'DK Smiling Cat';white-space:pre;shape-inside:url(#rect12-3-3-6-0-1);fill:#808080;"
       transform="matrix(0.99504443,0,0,1.0036991,-33.014679,27.434381)"><tspan
         x="33.140625"
         y="65.905722"><tspan>Parameters</tspan></tspan></text>
    <text
       xml:space="preserve"
       id="text10-7-9-6-8-9"
       style="font-size:10.5833px;line-height:1.25;font-family:'DK Smiling Cat';-inkscape-font-specification:'DK Smiling Cat';white-space:pre;shape-inside:url(#rect12-3-3-6-0-1-7);fill:#808080;"
       transform="matrix(0.99504443,0,0,1.0036991,-33.037967,37.243472)"><tspan
         x="33.140625"
         y="65.905722"><tspan>Show Parameters</tspan></tspan></text>
    <text
       xml:space="preserve"
       id="text10-7-9-6-8-9-0"
       style="font-size:10.5833px;line-height:1.25;font-family:'DK Smiling Cat';-inkscape-font-specification:'DK Smiling Cat';white-space:pre;shape-inside:url(#rect12-3-3-6-0-1-7-2);fill:#808080;"
       transform="matrix(0.99504443,0,0,1.0036991,-33.149579,48.323787)"><tspan
         x="33.140625"
         y="65.905722"><tspan>Update</tspan></tspan></text>
  </g>
</svg>
